<?xml version="1.0" encoding="UTF-8"?>
<svg version="1.1" viewBox="0 0 102 48" xmlns="http://www.w3.org/2000/svg">
    <title>B46A98FB-1B65-4A39-B3C7-9E713B5A833F</title>
    <desc>Created with sketchtool.</desc>
    <defs>
        <radialGradient id="a" cx="25.185%" cy="16.057%" r="49.655%" gradientTransform="translate(.25185 .16057) scale(.47059 1) translate(-.25185 -.16057)">
            <stop stop-color="#8A3DFF" offset="0"/>
            <stop stop-color="#6E31CC" offset="1"/>
        </radialGradient>
    </defs>
    <g transform="translate(-291 -3569)" fill="none" fill-rule="evenodd">
        <path d="m337.38 3609.1c2.098 0.08568 3.7564 1.7932 3.7624 3.8748 0.006162 2.1478-1.7453 3.8942-3.9123 3.9004h-0.16654c-2.166-0.04111-3.8885-1.815-3.847-3.9618 0.041468-2.1472 1.8309-3.8544 3.9969-3.8134h0.16654zm-13.988-40.132c0.24814-0.01486 0.49962-0.01486 0.80272-0.01321 9.0614 0.01321 14.894 6.2349 15.575 15.149 1.0675 13.972-9.7691 32.84-24.643 32.85-2.6646-0.00165-5.4575-0.61062-8.3352-1.9644-11.058-5.1983-20.186-20.606-13.543-32.253 5.5524-9.7412 19.613-13.439 30.143-13.769zm-20.281 19.527v0.00165c0.020651-0.052 0.062119-0.09311 0.11441-0.11357 0.10442-0.04078 0.2225 0.01006 0.26363 0.11357l1.8636 4.7707c0.008327 0.02212 0.012823 0.04556 0.01299 0.069 0.001165 0.11126-0.088932 0.20238-0.20118 0.20337h-3.7521c-0.024647-1.6e-4 -0.048962-0.00478-0.071944-0.01353-0.10475-0.04028-0.15671-0.15683-0.11624-0.26066l1.8869-4.7705zm-3.1642 8.0491v-0.00165c0.03031-0.07692 0.10492-0.12727 0.18819-0.12727h6.3051c0.083436 6.6e-4 0.15804 0.05167 0.18819 0.12892l0.97591 2.4943c0.030144 0.07709 0.10475 0.1281 0.18819 0.12859h3.6372c0.02648 0 0.052793-0.00528 0.077274-0.01535 0.10359-0.04292 0.15255-0.16078 0.10925-0.26346l-6.1752-14.527c-0.031642-0.07428-0.10525-0.12248-0.18652-0.12215h-3.6638c-0.080937-6.6e-4 -0.15438 0.04671-0.18652 0.1205l-6.3285 14.527c-0.010659 0.02493-0.016321 0.05183-0.016321 0.07891-1.66e-4 0.11126 0.090597 0.20139 0.20284 0.20155h3.4973c0.083103-1.6e-4 0.15755-0.05051 0.18819-0.12694l0.99923-2.496zm24.999-4.6238l-0.00333-0.0066c0-2.6858-1.677-4.4125-4.2367-4.4125-1.4872 0.01816-2.6779 0.52989-3.5106 1.5369-0.038636 0.04985-0.09859 0.07891-0.16221 0.07808-0.11125-0.00116-0.20035-0.09162-0.19918-0.20189v-1.0416c0-0.11126-0.09093-0.20139-0.20318-0.20139h-3.3158-0.004996c-0.11225 0.0028-0.20085 0.09508-0.19818 0.20634v11.09c0 0.11126 0.09093 0.20156 0.20318 0.20156h3.3191c0.11225 0 0.20318-0.0903 0.20318-0.20156v-5.8617c-5e-4 -0.00875-5e-4 -0.01766 0-0.02641 0.15488-1.3569 1.0142-2.3111 2.3648-2.3111 1.2474 0 2.0434 0.83033 2.0434 2.1741v6.0251c0 0.11126 0.09093 0.20156 0.20318 0.20156h3.2941c0.11225 0 0.20318-0.0903 0.20318-0.20156v-7.047zm8.6034 8.442l4.9046-12.402c0.009659-0.02393 0.014655-0.04952 0.014489-0.07544-6.66e-4 -0.11027-0.09143-0.19908-0.20268-0.19858h-3.2558c-0.087932 0-0.16587 0.05596-0.19318 0.13866l-2.2899 6.9448c-0.020484 0.05728-0.065949 0.10234-0.12374 0.12265-0.10575 0.03714-0.22183-0.01783-0.2593-0.12265l-2.5963-6.9613c-0.029811-0.07824-0.10542-0.13024-0.18985-0.13041h-3.3807c-0.026479 1.7e-4 -0.052792 0.00545-0.077273 0.01552-0.10359 0.04292-0.15255 0.16095-0.10925 0.26346l4.6631 10.872c0.023815 0.05249 0.023815 0.11274 0 0.16507l-0.23982 0.49523c-0.23698 0.57612-0.81354 0.94275-1.4406 0.91618-0.49295-0.00677-0.96925-0.17779-1.3523-0.48533-0.006162-0.00462-0.01249-0.00891-0.019152-0.01287-0.094927-0.05597-0.2175-0.02493-0.27396 0.069l-1.3323 2.1709c-0.055291 0.08831-0.032808 0.20387 0.051627 0.26561 0.92629 0.7024 2.0631 1.0766 3.2292 1.0631 2.15 0 3.6122-1.0235 4.4732-3.1133zm20.218-1.3949l-0.018319-8.5444c-0.002498-0.1111-0.095426-0.19941-0.20734-0.1971-0.078107 0.00165-0.14839 0.04738-0.18069 0.11786l-3.1742 7.2105c-0.032142 0.07297-0.10475 0.12001-0.18486 0.12051h-2.2318c-0.080105-5e-4 -0.15255-0.04754-0.18469-0.12051l-3.1642-7.2054c-0.046464-0.10136-0.16704-0.14593-0.26913-0.0997-0.071612 0.03219-0.11791 0.10251-0.11891 0.18042v8.5378c0 0.11126-0.09093 0.20156-0.20318 0.20156h-3.0145c-0.11208 0-0.20301-0.0903-0.20301-0.20156v-14.543c0-0.11109 0.09093-0.20139 0.20301-0.20139h3.8622c0.079272 0 0.15155 0.04573 0.18469 0.1172l3.8489 8.3727c0.047463 0.10086 0.16837 0.14428 0.27012 0.09707 0.043133-0.01998 0.077773-0.05431 0.097925-0.09707l3.8385-8.3727c0.033308-0.07147 0.10542-0.1172 0.18502-0.1172h3.8454c0.11208 0 0.20301 0.0903 0.20301 0.20139v14.543c0 0.11126-0.09093 0.20156-0.20301 0.20156h-2.9777c-0.11158 0-0.20234-0.08931-0.20318-0.19975v-0.00181zm6.3883 0v-11.09c0-0.11126 0.091096-0.20139 0.20334-0.20139h3.294c0.11225 0 0.20334 0.09013 0.20334 0.20139v11.09c0 0.11126-0.091096 0.20156-0.20334 0.20156h-3.294c-0.11225 0-0.20334-0.0903-0.20334-0.20156zm18.519-7.047v7.047c0 0.11126-0.09093 0.20156-0.20318 0.20156h-3.2941c-0.11225 0-0.20318-0.0903-0.20318-0.20156v-6.0251c0-1.3437-0.79605-2.1741-2.0434-2.1741-1.3506 0-2.21 0.95414-2.3648 2.3111v0.02641 5.8617c0 0.11126-0.09093 0.20156-0.20318 0.20156h-3.3158c-0.11225 0-0.20318-0.0903-0.20318-0.20156v-11.09c0-0.11126 0.09093-0.20139 0.20318-0.20139h3.3158c0.11225 0 0.20318 0.09013 0.20318 0.20139v1.0416c-0.001165 0.11027 0.087933 0.20074 0.19935 0.20189 0.063451 6.6e-4 0.1234-0.02823 0.16204-0.07808 0.83269-1.007 2.0234-1.5187 3.5106-1.5369 2.5597 0 4.2367 1.7267 4.2367 4.4125v0.00165zm14.122 7.2485h-3.3174c-0.11225 0-0.20318-0.09013-0.20318-0.20139v-0.77091c8.32e-4 -0.11027-0.088599-0.2004-0.20001-0.20123-0.055124-4.9e-4 -0.10792 0.02163-0.14639 0.06092-0.79272 0.81382-1.8519 1.2612-3.1376 1.2612-3.2691 0-5.4207-2.387-5.4207-5.9428 0-3.5178 2.1282-5.8421 5.3292-5.8421 1.3323 0 2.423 0.44901 3.2257 1.2645 0.078273 0.07841 0.20584 0.07907 0.28511 0.00148 0.03847-0.0378 0.06012-0.08963 0.059621-0.14345v-5.1108c0-0.11126 0.091096-0.20139 0.20318-0.20139h3.3158c0.11225-0.00264 0.20534 0.08518 0.20817 0.19644v0.00495 15.418c0 0.11061-0.089931 0.20041-0.20151 0.2014v0.00495zm-3.519-5.7199c0-1.7696-1.0325-2.9846-2.5813-2.9846-1.5488 0-2.5813 1.2199-2.603 2.9846 0.02165 1.7696 1.0542 3.006 2.603 3.006 1.5488 0 2.5813-1.2364 2.5813-3.006zm-25.269-9.0644c0 1.0786-0.88215 1.9528-1.9701 1.9528-1.0882 0-1.9701-0.87424-1.9701-1.9528 0-1.0784 0.88199-1.9529 1.9701-1.9529 1.088 0 1.9701 0.87441 1.9701 1.9529z" fill="url(#a)"/>
    </g>
</svg>
